<svg width="466" height="341" viewBox="0 0 466 341" fill="none" xmlns="http://www.w3.org/2000/svg">
<rect x="14.0312" y="326.893" width="53.528" height="14.0316" fill="#3A4323"/>
<path d="M14 173L14 341C6.26801 341 3.66384e-07 334.732 7.0436e-07 327L7.43591e-06 173L14 173Z" fill="#3A4323"/>
<path d="M94.0645 281.159L94.0645 340.923C86.315 340.923 80.0328 334.641 80.0328 326.892L80.0328 281.159L94.0645 281.159Z" fill="#3A4323"/>
<rect x="133.56" y="281.159" width="15.5907" height="14.0316" transform="rotate(90 133.56 281.159)" fill="#3A4323"/>
<path d="M80.0332 281.159C80.0332 273.409 86.3154 267.127 94.0648 267.127H119.53C127.279 267.127 133.561 273.409 133.561 281.159H80.0332Z" fill="#3A4323"/>
<rect x="78.9932" y="249.544" width="39.076" height="14.0674" transform="rotate(-45 78.9932 249.544)" fill="#3A4323"/>
<rect x="124.6" y="259.492" width="39.076" height="14.0674" transform="rotate(-135 124.6 259.492)" fill="#3A4323"/>
<path d="M80.5527 296.75H133.561C133.561 304.499 127.279 310.782 119.529 310.782H80.5527V296.75Z" fill="#3A4323"/>
<rect x="94.0645" y="326.893" width="39.4964" height="14.0316" fill="#3A4323"/>
<rect x="15.3164" width="92.949" height="15.3155" fill="#3A4323"/>
<rect y="128.334" width="108.264" height="15.3155" fill="#3A4323"/>
<path d="M15.3164 0L15.3164 143.12L0.000941067 143.12L0.000946654 15.3154C0.000947024 6.85695 6.85791 -3.69733e-07 15.3164 0Z" fill="#3A4323"/>
<rect x="108.264" y="62.8467" width="65.4868" height="15.3155" transform="rotate(90 108.264 62.8467)" fill="#3A4323"/>
<path d="M92.9482 -6.6946e-07C101.407 -2.99728e-07 108.264 6.85697 108.264 15.3155L108.264 40.1371L92.9482 40.1371L92.9482 -6.6946e-07Z" fill="#3A4323"/>
<rect x="165.397" y="62.3184" width="80.9159" height="15.4125" transform="rotate(90 165.397 62.3184)" fill="#3A4323"/>
<rect x="165.397" y="24.8213" width="15.4125" height="15.4125" transform="rotate(90 165.397 24.8213)" fill="#3A4323"/>
<rect x="222.339" y="62.3184" width="80.8023" height="15.3155" transform="rotate(90 222.339 62.3184)" fill="#3A4323"/>
<rect x="422.988" y="62.9355" width="80.9159" height="15.4125" transform="rotate(90 422.988 62.9355)" fill="#3A4323"/>
<rect x="325.376" y="62.9355" width="80.9159" height="15.4125" transform="rotate(90 325.376 62.9355)" fill="#3A4323"/>
<rect x="265.116" y="62.3184" width="80.8023" height="15.3155" transform="rotate(90 265.116 62.3184)" fill="#3A4323"/>
<rect x="466" y="63" width="111" height="16" transform="rotate(90 466 63)" fill="#3A4323"/>
<rect x="368.188" y="62.9355" width="80.9159" height="15.4125" transform="rotate(90 368.188 62.9355)" fill="#3A4323"/>
<path d="M207.023 62.3184L234.801 62.3184C243.085 62.3184 249.801 69.0341 249.801 77.3184V77.6338H207.023V62.3184Z" fill="#3A4323"/>
<rect x="407.576" y="62.9355" width="58.2252" height="15.4125" fill="#3A4323"/>
<rect x="309.964" y="62.9355" width="58.2252" height="15.4125" fill="#3A4323"/>
<path d="M0 173L466 173C466 181.284 459.284 188 451 188L0 188L0 173Z" fill="#3A4323"/>
<path d="M207.023 127.805H249.801V128.12C249.801 136.404 243.085 143.12 234.801 143.12H207.023V127.805Z" fill="#3A4323"/>
<rect x="407.576" y="128.438" width="58.2252" height="15.4125" fill="#3A4323"/>
<rect x="42.8125" y="62.9355" width="65.5033" height="15.4125" fill="#3A4323"/>
</svg>
